<svg width="150" height="15" viewBox="0 0 150 15" fill="none" xmlns="http://www.w3.org/2000/svg">
<path d="M1.47368 13.5714C0.663158 13.5714 0 12.9311 0 12.1484V2.85156C0 2.06892 0.663158 1.42857 1.47368 1.42857C2.28421 1.42857 2.94737 2.06892 2.94737 2.85156V12.1484C2.94737 12.9074 2.28421 13.5714 1.47368 13.5714Z" fill="#FF793E"/>
<path d="M5.15789 15C4.34737 15 3.68421 14.4088 3.68421 13.6861V1.31387C3.68421 0.591241 4.34737 0 5.15789 0C5.96842 0 6.63158 0.591241 6.63158 1.31387V13.6861C6.63158 14.4088 5.96842 15 5.15789 15Z" fill="#FF793E"/>
<path d="M8.84211 11.0714C8.03158 11.0714 7.36842 10.4688 7.36842 9.73214V5.26786C7.36842 4.53125 8.03158 3.92857 8.84211 3.92857C9.65263 3.92857 10.3158 4.53125 10.3158 5.26786V9.73214C10.3158 10.4688 9.65263 11.0714 8.84211 11.0714Z" fill="#FF793E"/>
<path d="M12.5263 9.28571C11.7158 9.28571 11.0526 8.65546 11.0526 7.88515V7.11485C11.0526 6.34454 11.7158 5.71429 12.5263 5.71429C13.3368 5.71429 14 6.34454 14 7.11485V7.88515C14 8.65546 13.3368 9.28571 12.5263 9.28571Z" fill="#FF793E"/>
<path d="M26.0961 13C24.4831 13 23.1036 12.6243 22 11.8729V9.59773C22.4669 9.97344 23.0612 10.3074 23.8252 10.5996C24.568 10.871 25.3108 11.0171 26.0112 11.0171C26.5842 11.0171 27.0724 10.9127 27.4756 10.704C27.8788 10.4953 28.0911 10.1822 28.0911 9.78557C28.0911 9.66034 28.0699 9.5351 28.0486 9.43073C28.0274 9.32637 27.9637 9.24288 27.8576 9.15939C27.7515 9.0759 27.6666 8.99241 27.6029 8.92979C27.5393 8.86717 27.4119 8.80455 27.2209 8.74193C27.0299 8.67931 26.9026 8.61669 26.7965 8.59582C26.6903 8.57495 26.5206 8.51233 26.2659 8.42884C26.0112 8.34535 25.8202 8.3036 25.7141 8.26186C25.3321 8.13662 25.0774 8.05313 24.9076 8.01138C24.759 7.96964 24.5256 7.86527 24.186 7.7609C23.8676 7.63567 23.6342 7.53131 23.4856 7.42694C23.3371 7.32258 23.1673 7.19734 22.955 7.03035C22.7428 6.86337 22.573 6.69639 22.4881 6.50853C22.382 6.32068 22.2971 6.11195 22.2335 5.86148C22.1486 5.611 22.1273 5.33966 22.1273 5.02656C22.1273 4.08729 22.4881 3.35674 23.2097 2.81405C23.9313 2.27135 24.9288 2 26.181 2C27.4331 2 28.6004 2.29222 29.704 2.87666V5.0057C28.6217 4.33777 27.4544 4.00379 26.2022 4.00379C24.9713 4.00379 24.377 4.35863 24.377 5.04743C24.377 5.1518 24.3982 5.25617 24.4407 5.33966C24.4831 5.42315 24.5468 5.50664 24.6529 5.59013C24.759 5.67363 24.8439 5.73624 24.95 5.77798C25.0561 5.81973 25.1835 5.88236 25.3745 5.94498C25.5443 6.00759 25.7141 6.04933 25.8414 6.09108C25.9687 6.13282 26.1598 6.17458 26.4144 6.25807C26.6691 6.32069 26.8601 6.3833 27.0087 6.42505C27.4119 6.55029 27.7515 6.67552 28.0274 6.80076C28.3033 6.92599 28.6216 7.07211 28.94 7.25996C29.2583 7.44782 29.5343 7.65654 29.7253 7.86527C29.9163 8.074 30.0861 8.34535 30.2346 8.67932C30.362 8.99241 30.4256 9.34724 30.4256 9.74383C30.4256 10.7457 30.0224 11.5598 29.2159 12.1442C28.3458 12.7078 27.327 13 26.0961 13Z" fill="#202934"/>
<path d="M39.091 11.852C38.2845 12.6243 37.2658 13 36.0348 13C34.7826 13 33.7639 12.6243 32.9787 11.852C32.1722 11.0797 31.7689 10.1404 31.7689 9.01328C31.7689 7.88614 32.1722 6.94686 32.9787 6.19544C33.7851 5.42314 34.8039 5.04743 36.0348 5.04743C37.2658 5.04743 38.3057 5.42314 39.091 6.19544C39.8974 6.96774 40.3007 7.90701 40.3007 9.01328C40.2795 10.1404 39.8762 11.0797 39.091 11.852ZM34.5067 10.5161C34.91 10.9127 35.4193 11.1214 36.0348 11.1214C36.6503 11.1214 37.1597 10.9127 37.5629 10.5161C37.9661 10.1195 38.1571 9.59772 38.1571 8.99241C38.1571 8.38709 37.9661 7.88614 37.5629 7.48956C37.1597 7.09298 36.6503 6.88425 36.0348 6.88425C35.4193 6.88425 34.91 7.09298 34.5067 7.48956C34.1035 7.88614 33.9125 8.38709 33.9125 8.99241C33.8913 9.61859 34.1035 10.1195 34.5067 10.5161Z" fill="#202934"/>
<path d="M47.0135 5.25617H49.1783V12.8122H47.0135V11.8937C46.3344 12.6243 45.4854 13 44.4455 13C43.5541 13 42.8537 12.7287 42.3656 12.1651C41.8775 11.6015 41.644 10.8501 41.644 9.86907V5.23531H43.8088V9.43075C43.8088 10.0152 43.9573 10.4326 44.2332 10.6622C44.5304 10.9127 44.8699 11.0171 45.2732 11.0171C45.6128 11.0171 45.9523 10.9336 46.2707 10.7457C46.589 10.5579 46.8225 10.3283 47.0135 10.0361V5.25617Z" fill="#202934"/>
<path d="M52.6863 12.9791H50.5216V5.42315H52.6863V6.34156C53.3867 5.61101 54.2569 5.23529 55.2544 5.23529C56.1457 5.23529 56.8461 5.50664 57.3342 6.07021C57.8224 6.63377 58.0558 7.3852 58.0558 8.36622V13H55.8911V8.80456C55.8911 8.22012 55.7425 7.80266 55.4666 7.57306C55.1695 7.32258 54.8299 7.21821 54.4266 7.21821C54.0871 7.21821 53.7475 7.30172 53.4292 7.48957C53.1108 7.67743 52.8774 7.90702 52.6863 8.19924V12.9791Z" fill="#202934"/>
<path d="M63.0071 13C61.9672 13 61.097 12.6243 60.4179 11.852C59.7387 11.0797 59.3991 10.1404 59.3991 9.01329C59.3991 7.88615 59.7387 6.94688 60.4179 6.19545C61.097 5.42316 61.9672 5.04745 63.0071 5.04745C64.0895 5.04745 64.9384 5.42316 65.5327 6.17458V2.20873H67.6974V12.8122H65.5327V11.8937C64.9596 12.6452 64.1319 13 63.0071 13ZM63.6226 11.1423C64.047 11.1423 64.4291 11.038 64.7686 10.8083C65.1082 10.5996 65.3629 10.3283 65.5327 9.99432V8.03226C65.3629 7.71917 65.1082 7.44782 64.7686 7.2391C64.4291 7.03037 64.047 6.926 63.6226 6.926C63.0071 6.926 62.519 7.13474 62.1369 7.53132C61.7549 7.9279 61.5427 8.42884 61.5427 9.03416C61.5427 9.63947 61.7337 10.1404 62.1369 10.5579C62.519 10.9545 63.0283 11.1423 63.6226 11.1423Z" fill="#202934"/>
<path d="M69.0407 13V2.39658H71.248V13H69.0407Z" fill="#202934"/>
<path d="M74.756 12.9791H72.5913V5.42315H74.756V6.34156C75.4564 5.61101 76.3266 5.23529 77.3241 5.23529C78.2154 5.23529 78.9158 5.50664 79.4039 6.07021C79.8921 6.63377 80.1255 7.3852 80.1255 8.36622V13H77.9608V8.80456C77.9608 8.22012 77.8122 7.80266 77.5363 7.57306C77.2392 7.32258 76.8996 7.21821 76.4964 7.21821C76.1568 7.21821 75.8172 7.30172 75.4989 7.48957C75.1805 7.67743 74.9471 7.90702 74.756 8.19924V12.9791Z" fill="#202934"/>
<path d="M90.4251 13C89.8308 13 89.3427 12.833 88.9606 12.5199C88.5786 12.2068 88.3876 11.6641 88.3876 10.9127V7.03037H85.0131V12.7913H82.8483V7.03037H81.4688V5.23531H82.8483V4.52562C82.8483 3.7742 83.0606 3.16888 83.5063 2.70968C83.9519 2.25048 84.5887 2.02088 85.4376 2.02088C86.1804 2.02088 86.8383 2.12524 87.3901 2.33397V4.06642C86.9444 3.89943 86.4988 3.81594 86.0743 3.81594C85.3739 3.81594 85.0131 4.14991 85.0131 4.83872V5.25617H88.3876V2.20873H90.5524V10.3492C90.5524 10.8501 90.7859 11.1006 91.2528 11.1006C91.465 11.1006 91.656 11.0588 91.8046 10.9545V12.7078C91.4226 12.9165 90.9556 13 90.4251 13Z" fill="#202934"/>
<path d="M98.5174 5.25617H100.682V12.8122H98.5174V11.8937C97.8382 12.6243 96.9893 13 95.9494 13C95.058 13 94.3576 12.7287 93.8695 12.1651C93.3813 11.6015 93.1479 10.8501 93.1479 9.86907V5.23531H95.3127V9.43075C95.3127 10.0152 95.4612 10.4326 95.7371 10.6622C96.0343 10.9127 96.3738 11.0171 96.7771 11.0171C97.1166 11.0171 97.4562 10.9336 97.7746 10.7457C98.0929 10.5579 98.3264 10.3283 98.5174 10.0361V5.25617Z" fill="#202934"/>
<path d="M106.291 13C105.082 13 104.084 12.6452 103.256 11.9146C102.429 11.1841 102.025 10.2239 102.025 9.01329C102.025 7.88615 102.407 6.94687 103.15 6.19545C103.893 5.42316 104.848 5.04744 106.037 5.04744C107.161 5.04744 108.053 5.42316 108.711 6.19545C109.369 6.96775 109.708 7.90702 109.708 9.03416V9.59773H104.19C104.296 10.1195 104.593 10.4953 105.06 10.7666C105.527 11.038 106.1 11.1632 106.779 11.1632C107.671 11.1632 108.499 10.9336 109.241 10.4953V12.2068C108.52 12.7495 107.543 13 106.291 13ZM104.169 8.26187H107.543C107.522 7.84441 107.374 7.48957 107.077 7.19735C106.779 6.90513 106.397 6.75902 105.93 6.75902C105.421 6.75902 105.018 6.90513 104.721 7.17648C104.402 7.44783 104.233 7.80267 104.169 8.26187Z" fill="#202934"/>
<path d="M113.216 12.9791H111.052V5.42315H113.216V6.34156C113.917 5.61101 114.787 5.23529 115.784 5.23529C116.676 5.23529 117.376 5.50664 117.864 6.07021C118.352 6.63377 118.586 7.3852 118.586 8.36622V13H116.421V8.80456C116.421 8.22012 116.272 7.80266 115.997 7.57306C115.699 7.32258 115.36 7.21821 114.957 7.21821C114.617 7.21821 114.277 7.30172 113.959 7.48957C113.641 7.67743 113.407 7.90702 113.216 8.19924V12.9791Z" fill="#202934"/>
<path d="M124.11 13C122.964 13 121.988 12.6243 121.16 11.8937C120.332 11.1632 119.929 10.203 119.929 8.99242C119.929 7.80267 120.332 6.84251 121.16 6.13284C121.988 5.40229 122.964 5.04744 124.131 5.04744C124.959 5.04744 125.723 5.21443 126.402 5.5484V7.36433C125.744 7.05123 125.086 6.90513 124.45 6.90513C123.792 6.90513 123.219 7.09299 122.752 7.48957C122.285 7.88616 122.051 8.3871 122.051 9.01329C122.051 9.63947 122.285 10.1404 122.752 10.537C123.219 10.9336 123.771 11.1214 124.45 11.1214C125.214 11.1214 125.893 10.9545 126.53 10.5996V12.4156C125.85 12.8121 125.044 13 124.11 13Z" fill="#202934"/>
<path d="M132.139 13C130.929 13 129.932 12.6452 129.104 11.9146C128.276 11.1841 127.873 10.2239 127.873 9.01329C127.873 7.88615 128.255 6.94687 128.998 6.19545C129.741 5.42316 130.696 5.04744 131.884 5.04744C133.009 5.04744 133.9 5.42316 134.558 6.19545C135.216 6.96775 135.556 7.90702 135.556 9.03416V9.59773H130.038C130.144 10.1195 130.441 10.4953 130.908 10.7666C131.375 11.038 131.948 11.1632 132.627 11.1632C133.518 11.1632 134.346 10.9336 135.089 10.4953V12.2068C134.367 12.7495 133.391 13 132.139 13ZM130.016 8.26187H133.391C133.37 7.84441 133.221 7.48957 132.924 7.19735C132.627 6.90513 132.245 6.75902 131.778 6.75902C131.269 6.75902 130.865 6.90513 130.568 7.17648C130.25 7.44783 130.08 7.80267 130.016 8.26187Z" fill="#202934"/>
<path d="M136.899 13V5.44402H139.064V6.71726C139.297 6.32068 139.658 5.98672 140.146 5.6945C140.634 5.40228 141.165 5.25616 141.738 5.25616C141.823 5.25616 141.908 5.25617 141.993 5.27704V7.36433C141.802 7.32258 141.568 7.28083 141.313 7.28083C140.783 7.28083 140.316 7.40607 139.913 7.67742C139.509 7.94877 139.212 8.24098 139.064 8.59582V13H136.899Z" fill="#202934"/>
<path d="M146.562 13C145.182 13 144.1 12.7704 143.336 12.2903V10.3909C143.654 10.6205 144.121 10.8084 144.673 10.9962C145.246 11.1632 145.84 11.2676 146.456 11.2676C147.347 11.2676 147.772 11.0588 147.772 10.6414C147.772 10.537 147.75 10.4326 147.687 10.37C147.623 10.2865 147.538 10.2239 147.39 10.1822C147.241 10.1404 147.114 10.0987 146.986 10.0569C146.859 10.0152 146.668 9.97344 146.434 9.91082C146.201 9.8482 145.989 9.78558 145.819 9.74384C144.949 9.53511 144.333 9.26376 143.93 8.90892C143.527 8.57496 143.336 8.05314 143.336 7.38521C143.336 6.65466 143.633 6.09109 144.227 5.67363C144.822 5.25617 145.649 5.06831 146.71 5.06831C147.878 5.06831 148.833 5.29792 149.597 5.75713V7.57306C148.705 7.05123 147.772 6.77989 146.817 6.77989C145.989 6.77989 145.586 6.98862 145.586 7.38521C145.586 7.48957 145.607 7.57306 145.67 7.65655C145.734 7.74004 145.84 7.80266 145.989 7.86528C146.137 7.9279 146.265 7.96964 146.392 7.99051C146.519 8.01139 146.689 8.07401 146.944 8.11576C147.199 8.17838 147.368 8.22012 147.496 8.24099C148.323 8.42885 148.939 8.72107 149.363 9.09678C149.788 9.4725 150 9.99431 150 10.6414C150 11.351 149.682 11.9146 149.066 12.3529C148.429 12.7913 147.581 13 146.562 13Z" fill="#202934"/>
</svg>
